{
	"asset":{
		"generator":"Khronos glTF Blender I/O v4.2.70",
		"version":"2.0"
	},
	"scene":0,
	"scenes":[
		{
			"name":"Scene",
			"nodes":[
				0,
				1
			]
		}
	],
	"nodes":[
		{
			"mesh":0,
			"name":"Donut",
			"scale":[
				8.150066375732422,
				8.150066375732422,
				8.150066375732422
			],
			"translation":[
				-0.08718718588352203,
				-0.543138861656189,
				-0.11498201638460159
			]
		},
		{
			"mesh":1,
			"name":"Icing",
			"scale":[
				8.150066375732422,
				8.150066375732422,
				8.150066375732422
			],
			"translation":[
				0.03581768274307251,
				-0.018095914274454117,
				-0.011703014373779297
			]
		}
	],
	"materials":[
		{
			"doubleSided":true,
			"name":"Material.001",
			"pbrMetallicRoughness":{
				"baseColorFactor":[
					0.8008760809898376,
					0.4057183265686035,
					0.11799049377441406,
					1
				],
				"metallicFactor":0,
				"roughnessFactor":0.5
			}
		},
		{
			"doubleSided":true,
			"name":"Material.002",
			"pbrMetallicRoughness":{
				"baseColorFactor":[
					0.8012357354164124,
					0,
					0.4926588833332062,
					1
				],
				"metallicFactor":0,
				"roughnessFactor":0.5
			}
		}
	],
	"meshes":[
		{
			"name":"Mesh",
			"primitives":[
				{
					"attributes":{
						"POSITION":0,
						"NORMAL":1,
						"TEXCOORD_0":2
					},
					"indices":3,
					"material":0
				}
			]
		},
		{
			"name":"Mesh",
			"primitives":[
				{
					"attributes":{
						"POSITION":4,
						"NORMAL":5,
						"TEXCOORD_0":6
					},
					"indices":7,
					"material":1
				}
			]
		}
	],
	"accessors":[
		{
			"bufferView":0,
			"componentType":5126,
			"count":1725,
			"max":[
				0.6607620120048523,
				0.24036408960819244,
				0.6519381999969482
			],
			"min":[
				-0.6561570167541504,
				-0.23812104761600494,
				-0.6488860845565796
			],
			"type":"VEC3"
		},
		{
			"bufferView":1,
			"componentType":5126,
			"count":1725,
			"type":"VEC3"
		},
		{
			"bufferView":2,
			"componentType":5126,
			"count":1725,
			"type":"VEC2"
		},
		{
			"bufferView":3,
			"componentType":5123,
			"count":9216,
			"type":"SCALAR"
		},
		{
			"bufferView":4,
			"componentType":5126,
			"count":28190,
			"max":[
				0.6809489727020264,
				0.25985288619995117,
				0.6673620343208313
			],
			"min":[
				-0.6746622920036316,
				-0.23867718875408173,
				-0.6656825542449951
			],
			"type":"VEC3"
		},
		{
			"bufferView":5,
			"componentType":5126,
			"count":28190,
			"type":"VEC3"
		},
		{
			"bufferView":6,
			"componentType":5126,
			"count":28190,
			"type":"VEC2"
		},
		{
			"bufferView":7,
			"componentType":5123,
			"count":161664,
			"type":"SCALAR"
		}
	],
	"bufferViews":[
		{
			"buffer":0,
			"byteLength":20700,
			"byteOffset":0,
			"target":34962
		},
		{
			"buffer":0,
			"byteLength":20700,
			"byteOffset":20700,
			"target":34962
		},
		{
			"buffer":0,
			"byteLength":13800,
			"byteOffset":41400,
			"target":34962
		},
		{
			"buffer":0,
			"byteLength":18432,
			"byteOffset":55200,
			"target":34963
		},
		{
			"buffer":0,
			"byteLength":338280,
			"byteOffset":73632,
			"target":34962
		},
		{
			"buffer":0,
			"byteLength":338280,
			"byteOffset":411912,
			"target":34962
		},
		{
			"buffer":0,
			"byteLength":225520,
			"byteOffset":750192,
			"target":34962
		},
		{
			"buffer":0,
			"byteLength":323328,
			"byteOffset":975712,
			"target":34963
		}
	],
	"buffers":[
		{
			"byteLength":1299040,
			"uri":"donut.bin"
		}
	]
}
