{
	"asset":{
		"generator":"Khronos glTF Blender I/O v4.2.70",
		"version":"2.0"
	},
	"scene":0,
	"scenes":[
		{
			"name":"Scene",
			"nodes":[
				0,
				1
			]
		}
	],
	"nodes":[
		{
			"mesh":0,
			"name":"Donut",
			"scale":[
				8.150066375732422,
				8.150066375732422,
				8.150066375732422
			],
			"translation":[
				-0.08718718588352203,
				-0.543138861656189,
				-0.11498201638460159
			]
		},
		{
			"mesh":1,
			"name":"Icing",
			"scale":[
				8.150066375732422,
				8.150066375732422,
				8.150066375732422
			],
			"translation":[
				0.03581768274307251,
				-0.018095914274454117,
				-0.011703014373779297
			]
		}
	],
	"materials":[
		{
			"doubleSided":true,
			"name":"Material.001",
			"pbrMetallicRoughness":{
				"baseColorFactor":[
					0.8008760809898376,
					0.4057183265686035,
					0.11799049377441406,
					1
				],
				"metallicFactor":0,
				"roughnessFactor":0.5
			}
		},
		{
			"doubleSided":true,
			"name":"Material.002",
			"pbrMetallicRoughness":{
				"baseColorFactor":[
					0.8012357354164124,
					0,
					0.4926588833332062,
					1
				],
				"metallicFactor":0,
				"roughnessFactor":0.5
			}
		}
	],
	"meshes":[
		{
			"name":"Torus",
			"primitives":[
				{
					"attributes":{
						"POSITION":0,
						"NORMAL":1,
						"TEXCOORD_0":2
					},
					"indices":3,
					"material":0
				}
			]
		},
		{
			"name":"Torus.001",
			"primitives":[
				{
					"attributes":{
						"POSITION":4,
						"NORMAL":5,
						"TEXCOORD_0":6
					},
					"indices":7,
					"material":1
				}
			]
		}
	],
	"accessors":[
		{
			"bufferView":0,
			"componentType":5126,
			"count":429,
			"max":[
				0.6713285446166992,
				0.25018876791000366,
				0.6604353785514832
			],
			"min":[
				-0.667380154132843,
				-0.25,
				-0.656738817691803
			],
			"type":"VEC3"
		},
		{
			"bufferView":1,
			"componentType":5126,
			"count":429,
			"type":"VEC3"
		},
		{
			"bufferView":2,
			"componentType":5126,
			"count":429,
			"type":"VEC2"
		},
		{
			"bufferView":3,
			"componentType":5123,
			"count":2304,
			"type":"SCALAR"
		},
		{
			"bufferView":4,
			"componentType":5126,
			"count":855,
			"max":[
				0.664103090763092,
				0.24215112626552582,
				0.650154709815979
			],
			"min":[
				-0.6567503213882446,
				-0.23295104503631592,
				-0.6482128500938416
			],
			"type":"VEC3"
		},
		{
			"bufferView":5,
			"componentType":5126,
			"count":855,
			"type":"VEC3"
		},
		{
			"bufferView":6,
			"componentType":5126,
			"count":855,
			"type":"VEC2"
		},
		{
			"bufferView":7,
			"componentType":5123,
			"count":4638,
			"type":"SCALAR"
		}
	],
	"bufferViews":[
		{
			"buffer":0,
			"byteLength":5148,
			"byteOffset":0,
			"target":34962
		},
		{
			"buffer":0,
			"byteLength":5148,
			"byteOffset":5148,
			"target":34962
		},
		{
			"buffer":0,
			"byteLength":3432,
			"byteOffset":10296,
			"target":34962
		},
		{
			"buffer":0,
			"byteLength":4608,
			"byteOffset":13728,
			"target":34963
		},
		{
			"buffer":0,
			"byteLength":10260,
			"byteOffset":18336,
			"target":34962
		},
		{
			"buffer":0,
			"byteLength":10260,
			"byteOffset":28596,
			"target":34962
		},
		{
			"buffer":0,
			"byteLength":6840,
			"byteOffset":38856,
			"target":34962
		},
		{
			"buffer":0,
			"byteLength":9276,
			"byteOffset":45696,
			"target":34963
		}
	],
	"buffers":[
		{
			"byteLength":54972,
			"uri":"donut.bin"
		}
	]
}
